<svg width="169" height="35" viewBox="0 0 169 35" fill="none" xmlns="http://www.w3.org/2000/svg">
<path d="M16.8477 22.4561C16.8477 21.9229 16.7656 21.4443 16.6016 21.0205C16.4512 20.583 16.1641 20.1865 15.7402 19.8311C15.3164 19.4619 14.7217 19.0996 13.9561 18.7441C13.1904 18.3887 12.1992 18.0195 10.9824 17.6367C9.62891 17.1992 8.34375 16.707 7.12695 16.1602C5.92383 15.6133 4.85742 14.9775 3.92773 14.2529C3.01172 13.5146 2.28711 12.6602 1.75391 11.6895C1.23438 10.7188 0.974609 9.59082 0.974609 8.30566C0.974609 7.06152 1.24805 5.93359 1.79492 4.92188C2.3418 3.89648 3.10742 3.02148 4.0918 2.29688C5.07617 1.55859 6.23828 0.991211 7.57812 0.594727C8.93164 0.198242 10.415 0 12.0283 0C14.2295 0 16.1504 0.396484 17.791 1.18945C19.4316 1.98242 20.7031 3.06934 21.6055 4.4502C22.5215 5.83105 22.9795 7.41016 22.9795 9.1875H16.8682C16.8682 8.3125 16.6836 7.54688 16.3145 6.89062C15.959 6.2207 15.4121 5.69434 14.6738 5.31152C13.9492 4.92871 13.0332 4.7373 11.9258 4.7373C10.8594 4.7373 9.9707 4.90137 9.25977 5.22949C8.54883 5.54395 8.01562 5.97461 7.66016 6.52148C7.30469 7.05469 7.12695 7.65625 7.12695 8.32617C7.12695 8.83203 7.25 9.29004 7.49609 9.7002C7.75586 10.1104 8.13867 10.4932 8.64453 10.8486C9.15039 11.2041 9.77246 11.5391 10.5107 11.8535C11.249 12.168 12.1035 12.4756 13.0742 12.7764C14.7012 13.2686 16.1299 13.8223 17.3604 14.4375C18.6045 15.0527 19.6436 15.7432 20.4775 16.5088C21.3115 17.2744 21.9404 18.1426 22.3643 19.1133C22.7881 20.084 23 21.1846 23 22.415C23 23.7139 22.7471 24.876 22.2412 25.9014C21.7354 26.9268 21.0039 27.7949 20.0469 28.5059C19.0898 29.2168 17.9482 29.7568 16.6221 30.126C15.2959 30.4951 13.8125 30.6797 12.1719 30.6797C10.6953 30.6797 9.23926 30.4883 7.80371 30.1055C6.36816 29.709 5.0625 29.1143 3.88672 28.3213C2.72461 27.5283 1.79492 26.5166 1.09766 25.2861C0.400391 24.0557 0.0517578 22.5996 0.0517578 20.918H6.22461C6.22461 21.8477 6.36816 22.6338 6.65527 23.2764C6.94238 23.9189 7.3457 24.4385 7.86523 24.835C8.39844 25.2314 9.02734 25.5186 9.75195 25.6963C10.4902 25.874 11.2969 25.9629 12.1719 25.9629C13.2383 25.9629 14.1133 25.8125 14.7969 25.5117C15.4941 25.2109 16.0068 24.7939 16.335 24.2607C16.6768 23.7275 16.8477 23.126 16.8477 22.4561Z" fill="white"/>
<path d="M37.8975 0.389467V30.2488H31.7656V0.389467H37.8975ZM51.5312 0.410156L49.7405 5.26953H23C23 2.76953 20 0.769531 18 0.269531L51.5312 0.410156Z" fill="white"/>
<path d="M55.1904 5.5166L47.0693 30.2695H40.5273L51.5312 0.410156H55.7852L55.1904 5.5166ZM61.9375 30.2695L53.7959 5.5166L53.1396 0.410156H57.3438L66.1729 25.2695H68.7236V30.2695H61.9375ZM61.5684 19.1543V23.9736H45.7979V19.1543H61.5684Z" fill="white"/>
<path d="M68.7236 0.410156H79.8594C82.1426 0.410156 84.1045 0.751953 85.7451 1.43555C87.3994 2.11914 88.6709 3.13086 89.5596 4.4707C90.4482 5.81055 90.8926 7.45801 90.8926 9.41309C90.8926 11.0127 90.6191 12.3867 90.0723 13.5352C89.5391 14.6699 88.7803 15.6201 87.7959 16.3857C86.8252 17.1377 85.6836 17.7393 84.3711 18.1904L82.4229 19.2158H72.7432L72.7021 14.417H79.9004C80.9805 14.417 81.876 14.2256 82.5869 13.8428C83.2979 13.46 83.8311 12.9268 84.1865 12.2432C84.5557 11.5596 84.7402 10.7666 84.7402 9.86426C84.7402 8.90723 84.5625 8.08008 84.207 7.38281C83.8516 6.68555 83.3115 6.15234 82.5869 5.7832C81.8623 5.41406 80.9531 5.22949 79.8594 5.22949H74.876V30.2695H68.7236V0.410156ZM85.417 30.2695L78.6084 16.96L85.1094 16.9189L92 29.9824V30.2695H85.417Z" fill="white"/>
<path d="M103.676 0.410156V30.2695H97.5439V0.410156H103.676ZM118 0.410156C117.713 2.26953 117.787 4.76953 117.787 5.22949H92C90.8926 2.76953 89.9109 1.43555 88.5 0.410156H118Z" fill="white"/>
<rect x="150.912" y="10.8134" width="2.17544" height="9.92982" rx="1.08772" fill="white" stroke="white" stroke-width="2"/>
<circle cx="152" cy="17.2695" r="15" stroke="white" stroke-width="4"/>
<circle cx="152" cy="11.3047" r="0.894737" fill="black"/>
</svg>
